<svg width="14" height="15" viewBox="0 0 14 15" fill="none" xmlns="http://www.w3.org/2000/svg">
<path d="M6.904 0.699951C3.1487 0.699951 0.104004 3.74465 0.104004 7.49995C0.104004 8.98915 0.583404 10.3679 1.3977 11.4882L0.462704 13.9464L3.1606 13.178C4.2333 13.8869 5.5202 14.2999 6.904 14.2999C10.6593 14.2999 13.704 11.2552 13.704 7.49995C13.704 3.74465 10.6593 0.699951 6.904 0.699951ZM10.5182 10.3169L9.794 11.0411C9.0324 11.8027 7.0128 10.9646 5.2227 9.17445C3.4309 7.38265 2.6302 5.36305 3.3544 4.60145L4.0786 3.87725C4.3455 3.61035 4.8028 3.61035 5.1071 3.87725L6.1747 4.94485C6.5555 5.32565 6.4025 5.97335 5.9078 6.12465C5.5644 6.24025 5.3366 6.62105 5.4505 6.96445C5.6409 7.76345 6.6694 8.75455 7.4327 8.94495C7.7744 9.02145 8.1569 8.83105 8.2708 8.48765C8.4221 7.99295 9.0715 7.83995 9.4523 8.22075L10.5182 9.28835C10.7851 9.55525 10.7851 10.0126 10.5182 10.3169Z" fill="#4CAF50"/>
</svg>
