<svg width="25" height="15" viewBox="0 0 25 15" fill="none" xmlns="http://www.w3.org/2000/svg">
<path d="M23.4375 7.03132H3.44925L6.80081 5.01804C6.9288 4.92836 6.99568 4.81302 6.98809 4.69504C6.98049 4.57707 6.89898 4.46516 6.75984 4.38168C6.62071 4.2982 6.43419 4.24929 6.23757 4.24473C6.04095 4.24018 5.8487 4.28031 5.69925 4.3571L1.01175 7.1696C0.919883 7.22373 0.851006 7.29029 0.810903 7.3637C0.7708 7.43711 0.760641 7.51522 0.781279 7.59147C0.816578 7.67974 0.890782 7.76069 0.996123 7.82585L5.68362 10.6383C5.75366 10.6874 5.83985 10.7273 5.93677 10.7554C6.0337 10.7835 6.13927 10.7994 6.24686 10.8018C6.35446 10.8043 6.46175 10.7935 6.562 10.7699C6.66225 10.7463 6.75331 10.7106 6.82944 10.6649C6.90558 10.6192 6.96516 10.5646 7.00443 10.5044C7.04371 10.4443 7.06184 10.3799 7.05768 10.3154C7.05353 10.2508 7.02718 10.1875 6.98028 10.1293C6.93339 10.0711 6.86697 10.0194 6.78519 9.97741L3.44925 7.96882H23.4375C23.6447 7.96882 23.8434 7.91943 23.99 7.83152C24.1365 7.74362 24.2188 7.62439 24.2188 7.50007C24.2188 7.37575 24.1365 7.25652 23.99 7.16861C23.8434 7.0807 23.6447 7.03132 23.4375 7.03132Z" fill="black"/>
</svg>
