<svg width="15" height="14" viewBox="0 0 15 14" fill="none" xmlns="http://www.w3.org/2000/svg">
<g clip-path="url(#clip0_307_931)">
<path d="M7.79109 0C3.87918 0 0.699707 3.1385 0.699707 7C0.699707 10.8615 3.87918 14 7.79109 14C11.703 14 14.8825 10.8615 14.8825 7C14.8825 3.1385 11.703 0 7.79109 0ZM7.79109 13.2934C4.27869 13.2934 1.4155 10.4671 1.4155 7C1.4155 3.53286 4.27869 0.706573 7.79109 0.706573C11.3035 0.706573 14.1667 3.53286 14.1667 7C14.1667 10.4671 11.3035 13.2934 7.79109 13.2934Z" fill="black"/>
<path d="M8.29043 6.96707L10.3712 4.91308C10.5044 4.78163 10.5044 4.55158 10.3712 4.42012C10.2381 4.28867 10.005 4.28867 9.87184 4.42012L7.79104 6.47412L5.71023 4.42012C5.57706 4.28867 5.34401 4.28867 5.21084 4.42012C5.07767 4.55158 5.07767 4.78163 5.21084 4.91308L7.29165 6.96707L5.21084 9.00463C5.07767 9.13609 5.07767 9.36613 5.21084 9.49759C5.27743 9.56332 5.3773 9.59618 5.46054 9.59618C5.54377 9.59618 5.64365 9.56332 5.71023 9.49759L7.79104 7.4436L9.87184 9.49759C9.93843 9.56332 10.0383 9.59618 10.1215 9.59618C10.2048 9.59618 10.3047 9.56332 10.3712 9.49759C10.5044 9.36613 10.5044 9.13609 10.3712 9.00463L8.29043 6.96707Z" fill="black"/>
</g>
<defs>
<clipPath id="clip0_307_931">
<rect width="14.1828" height="14" fill="white" transform="translate(0.699707)"/>
</clipPath>
</defs>
</svg>
