<svg width="19" height="17" viewBox="0 0 19 17" fill="none" xmlns="http://www.w3.org/2000/svg">
<path d="M8.38672 16.8496C9.30899 16.8496 10.0566 16.102 10.0566 15.1797C10.0566 14.2574 9.30899 13.5098 8.38672 13.5098C7.46445 13.5098 6.7168 14.2574 6.7168 15.1797C6.7168 16.102 7.46445 16.8496 8.38672 16.8496Z" fill="black"/>
<path d="M13.9902 16.8496C14.9125 16.8496 15.6602 16.102 15.6602 15.1797C15.6602 14.2574 14.9125 13.5098 13.9902 13.5098C13.068 13.5098 12.3203 14.2574 12.3203 15.1797C12.3203 16.102 13.068 16.8496 13.9902 16.8496Z" fill="black"/>
<path d="M0.556637 1.2637H2.87793L5.5653 10.6714L5.35452 11.0929C4.79951 12.2017 5.60519 13.5097 6.84831 13.5097H16.2167C16.5244 13.5097 16.7733 13.2608 16.7733 12.9531C16.7733 12.6454 16.5244 12.3965 16.2167 12.3965H6.84831C6.43495 12.3965 6.1648 11.9612 6.35038 11.5908L6.50423 11.2832H16.2167C16.4651 11.2832 16.6836 11.1185 16.7522 10.8793L18.9787 3.08636C19.0265 2.9184 18.9928 2.7379 18.8879 2.59822C18.7825 2.45906 18.6178 2.37698 18.4433 2.37698H4.35376L3.83301 0.554287C3.7645 0.315118 3.546 0.150391 3.29756 0.150391H0.556637C0.248965 0.150391 0 0.399356 0 0.707028C0 1.0147 0.248965 1.2637 0.556637 1.2637Z" fill="black"/>
</svg>
