<svg width="17" height="15" viewBox="0 0 17 15" fill="none" xmlns="http://www.w3.org/2000/svg">
<path d="M6.00977 13.4763C6.00977 14.3002 6.68003 14.9704 7.50388 14.9704C8.32774 14.9704 8.998 14.3002 8.998 13.4763C8.998 12.6524 8.32774 11.9822 7.50388 11.9822C6.68003 11.9822 6.00977 12.6524 6.00977 13.4763ZM7.50388 12.9783C7.7785 12.9783 8.00192 13.2017 8.00192 13.4763C8.00192 13.7509 7.7785 13.9743 7.50388 13.9743C7.22926 13.9743 7.00584 13.7509 7.00584 13.4763C7.00584 13.2017 7.22926 12.9783 7.50388 12.9783Z" fill="black"/>
<path d="M11.0232 13.4763C11.0232 14.3002 11.6935 14.9704 12.5173 14.9704C13.3412 14.9704 14.0114 14.3002 14.0114 13.4763C14.0114 12.6524 13.3412 11.9822 12.5173 11.9822C11.6935 11.9822 11.0232 12.6524 11.0232 13.4763ZM12.5173 12.9783C12.7919 12.9783 13.0153 13.2017 13.0153 13.4763C13.0153 13.7509 12.7919 13.9743 12.5173 13.9743C12.2427 13.9743 12.0193 13.7509 12.0193 13.4763C12.0193 13.2017 12.2427 12.9783 12.5173 12.9783Z" fill="black"/>
<path d="M16.5017 2.02145H3.89523C3.7247 1.4245 3.56579 0.868294 3.4293 0.390541C3.36824 0.176716 3.17277 0.0292969 2.95042 0.0292969H0.498039C0.222989 0.0292969 0 0.252286 0 0.527336C0 0.802386 0.222989 1.02538 0.498039 1.02538H2.57473C3.13167 2.9749 4.43368 7.53206 4.97953 9.44257L4.79084 9.81992C4.29363 10.8144 5.01774 11.9822 6.12724 11.9822H14.5095C14.7846 11.9822 15.0076 11.7592 15.0076 11.4842C15.0076 11.2091 14.7846 10.9862 14.5095 10.9862H6.12724C5.75683 10.9862 5.51628 10.5964 5.68176 10.2654L5.81942 9.99008H14.5095C14.7319 9.99008 14.9273 9.84269 14.9884 9.62887L16.9806 2.65632C17.0713 2.33874 16.8327 2.02145 16.5017 2.02145ZM14.1339 8.994H5.88732C5.61596 8.04417 4.85648 5.38604 4.17981 3.01753H15.8415L14.1339 8.994Z" fill="black"/>
</svg>
