<svg width="82" height="23" viewBox="0 0 82 23" fill="none" xmlns="http://www.w3.org/2000/svg">
<path d="M19.7538 17.3316H1.96488C1.6849 17.3316 1.42491 17.2913 1.18493 17.2107C0.944942 17.1301 0.734955 17.0214 0.554966 16.8844C0.384977 16.7394 0.249985 16.5702 0.149991 16.3768C0.0499969 16.1834 0 15.9739 0 15.7483V0H3.89976V14.1892H19.7538V17.3316Z" fill="#333333"/>
<path d="M39.8226 12.9201C39.8226 13.46 39.7376 13.9475 39.5676 14.3826C39.3976 14.8096 39.1726 15.1883 38.8926 15.5187C38.6126 15.841 38.2877 16.1189 37.9177 16.3526C37.5477 16.5782 37.1577 16.7635 36.7478 16.9086C36.3478 17.0536 35.9378 17.1624 35.5178 17.2349C35.1079 17.2994 34.7179 17.3316 34.3479 17.3316H27.3133C26.7734 17.3316 26.1834 17.255 25.5434 17.1019C24.9035 16.9489 24.3085 16.6991 23.7586 16.3526C23.2186 15.9981 22.7636 15.5428 22.3936 14.9869C22.0337 14.4228 21.8537 13.7339 21.8537 12.9201V8.66579C21.8537 7.86005 22.0337 7.17919 22.3936 6.62323C22.7636 6.05921 23.2186 5.60396 23.7586 5.25749C24.3085 4.90296 24.9035 4.64915 25.5434 4.49606C26.1834 4.34297 26.7734 4.26642 27.3133 4.26642H34.3479C35.3478 4.26642 36.1978 4.41146 36.8978 4.70152C37.5977 4.99159 38.1627 5.35821 38.5926 5.80137C39.0226 6.23647 39.3326 6.71186 39.5226 7.22754C39.7226 7.74321 39.8226 8.22263 39.8226 8.66579V12.9201ZM35.9228 8.68996C35.9228 8.25486 35.7878 7.93256 35.5178 7.72307C35.2478 7.51358 34.8579 7.40883 34.3479 7.40883H27.3433C26.8234 7.40883 26.4284 7.5176 26.1584 7.73516C25.8884 7.94465 25.7534 8.25486 25.7534 8.66579V12.9201C25.7534 13.3311 25.8884 13.6453 26.1584 13.8628C26.4284 14.0804 26.8234 14.1892 27.3433 14.1892H34.3479C34.8779 14.1892 35.2729 14.0804 35.5328 13.8628C35.7928 13.6453 35.9228 13.3311 35.9228 12.9201V8.68996Z" fill="#333333"/>
<path d="M60.7913 18.5885C60.7913 19.1284 60.7063 19.6118 60.5363 20.0389C60.3663 20.474 60.1413 20.8527 59.8614 21.175C59.5814 21.5053 59.2564 21.7833 58.8864 22.0089C58.5164 22.2426 58.1265 22.4319 57.7165 22.577C57.3165 22.722 56.9065 22.8268 56.4866 22.8912C56.0766 22.9637 55.6866 23 55.3166 23H48.2821V19.8576H55.3166C55.8466 19.8576 56.2416 19.7488 56.5016 19.5313C56.7615 19.3137 56.8915 18.9995 56.8915 18.5885V8.66579C56.8915 8.25486 56.7615 7.94465 56.5016 7.73516C56.2416 7.5176 55.8466 7.40883 55.3166 7.40883H48.2821C47.8021 7.40883 47.4221 7.52969 47.1421 7.77141C46.8621 8.00508 46.7222 8.30321 46.7222 8.66579V12.9201C46.7222 13.3311 46.8571 13.6453 47.1271 13.8628C47.3971 14.0804 47.7921 14.1892 48.3121 14.1892H55.3166V17.3316H48.2821C47.9121 17.3316 47.5221 17.2994 47.1121 17.2349C46.7022 17.1624 46.2922 17.0536 45.8822 16.9086C45.4822 16.7635 45.0972 16.5782 44.7273 16.3526C44.3573 16.1189 44.0323 15.841 43.7523 15.5187C43.4723 15.1883 43.2474 14.8096 43.0774 14.3826C42.9074 13.9475 42.8224 13.46 42.8224 12.9201V8.66579C42.8224 8.36766 42.8624 8.05342 42.9424 7.72307C43.0324 7.39271 43.1674 7.06639 43.3474 6.74409C43.5273 6.41373 43.7573 6.09949 44.0373 5.80137C44.3273 5.50324 44.6723 5.24137 45.0723 5.01576C45.4822 4.79016 45.9522 4.60886 46.4822 4.47189C47.0121 4.33491 47.6121 4.26642 48.2821 4.26642H55.3166C55.6866 4.26642 56.0766 4.30268 56.4866 4.3752C56.9065 4.43966 57.3165 4.5444 57.7165 4.68944C58.1265 4.83447 58.5164 5.02382 58.8864 5.25749C59.2564 5.4831 59.5814 5.76108 59.8614 6.09143C60.1413 6.41373 60.3663 6.7884 60.5363 7.21545C60.7063 7.64249 60.7913 8.12594 60.7913 8.66579V18.5885Z" fill="#333333"/>
<path d="M82 12.9201C82 13.46 81.915 13.9475 81.745 14.3826C81.575 14.8096 81.35 15.1883 81.0701 15.5187C80.7901 15.841 80.4651 16.1189 80.0951 16.3526C79.7251 16.5782 79.3352 16.7635 78.9252 16.9086C78.5252 17.0536 78.1152 17.1624 77.6953 17.2349C77.2853 17.2994 76.8953 17.3316 76.5253 17.3316H69.4908C68.9508 17.3316 68.3608 17.255 67.7209 17.1019C67.0809 16.9489 66.4859 16.6991 65.936 16.3526C65.396 15.9981 64.941 15.5428 64.5711 14.9869C64.2111 14.4228 64.0311 13.7339 64.0311 12.9201V8.66579C64.0311 7.86005 64.2111 7.17919 64.5711 6.62323C64.941 6.05921 65.396 5.60396 65.936 5.25749C66.4859 4.90296 67.0809 4.64915 67.7209 4.49606C68.3608 4.34297 68.9508 4.26642 69.4908 4.26642H76.5253C77.5253 4.26642 78.3752 4.41146 79.0752 4.70152C79.7751 4.99159 80.3401 5.35821 80.7701 5.80137C81.2001 6.23647 81.51 6.71186 81.7 7.22754C81.9 7.74321 82 8.22263 82 8.66579V12.9201ZM78.1002 8.68996C78.1002 8.25486 77.9652 7.93256 77.6953 7.72307C77.4253 7.51358 77.0353 7.40883 76.5253 7.40883H69.5208C69.0008 7.40883 68.6058 7.5176 68.3358 7.73516C68.0658 7.94465 67.9309 8.25486 67.9309 8.66579V12.9201C67.9309 13.3311 68.0658 13.6453 68.3358 13.8628C68.6058 14.0804 69.0008 14.1892 69.5208 14.1892H76.5253C77.0553 14.1892 77.4503 14.0804 77.7103 13.8628C77.9702 13.6453 78.1002 13.3311 78.1002 12.9201V8.68996Z" fill="#333333"/>
</svg>
